name Walk5.mot
datacolumns 19
datarows 12
range 3.13600000 3.14700000
endheader

                time	   L_ground_force_vx	   L_ground_force_vy	   L_ground_force_vz	   L_ground_force_px	   L_ground_force_py	   L_ground_force_pz	   R_ground_force_vx	   R_ground_force_vy	   R_ground_force_vz	   R_ground_force_px	   R_ground_force_py	   R_ground_force_pz	   L_ground_torque_x	   L_ground_torque_y	   L_ground_torque_z	   R_ground_torque_x	   R_ground_torque_y	   R_ground_torque_z	
          3.13600000	          0.01773532	          0.07441217	          0.00769994	         -0.00015484	          0.00000000	         -0.00004347	         -2.34803094	        964.10741418	        -57.80118787	          0.31410418	          0.00000000	          0.13520285	          0.00000000	          0.00029910	          0.00000000	          0.00000000	          4.13064900	          0.00000000	
          3.13700000	          0.01639677	          0.06993227	          0.00740378	         -0.00015124	          0.00000000	         -0.00004289	         -2.02149012	        963.21445449	        -57.84637138	          0.31428010	          0.00000000	          0.13521450	          0.00000000	          0.00028813	          0.00000000	          0.00000000	          4.07520212	          0.00000000	
          3.13800000	          0.01511008	          0.06556901	          0.00710482	         -0.00014737	          0.00000000	         -0.00004220	         -1.69365825	        962.31506757	        -57.89328282	          0.31445562	          0.00000000	          0.13522581	          0.00000000	          0.00027701	          0.00000000	          0.00000000	          4.01994801	          0.00000000	
          3.13900000	          0.01387568	          0.06132896	          0.00680443	         -0.00014328	          0.00000000	         -0.00004140	         -1.36460321	        961.41015666	        -57.94157244	          0.31463074	          0.00000000	          0.13523681	          0.00000000	          0.00026578	          0.00000000	          0.00000000	          3.96489089	          0.00000000	
          3.14000000	          0.01269381	          0.05721767	          0.00650387	         -0.00013899	          0.00000000	         -0.00004052	         -1.03439698	        960.50062991	        -57.99089259	          0.31480546	          0.00000000	          0.13524747	          0.00000000	          0.00025450	          0.00000000	          0.00000000	          3.91003598	          0.00000000	
          3.14100000	          0.01156446	          0.05323972	          0.00620428	         -0.00013454	          0.00000000	         -0.00003956	         -0.70311483	        959.58739863	        -58.04089880	          0.31497979	          0.00000000	          0.13525780	          0.00000000	          0.00024322	          0.00000000	          0.00000000	          3.85538921	          0.00000000	
          3.14200000	          0.01048743	          0.04939882	          0.00590673	         -0.00012996	          0.00000000	         -0.00003853	         -0.37083461	        958.67137491	        -58.09125099	          0.31515373	          0.00000000	          0.13526780	          0.00000000	          0.00023199	          0.00000000	          0.00000000	          3.80095695	          0.00000000	
          3.14300000	          0.00946234	          0.04569782	          0.00561215	         -0.00012528	          0.00000000	         -0.00003744	         -0.03763625	        957.75346908	        -58.14161479	          0.31532732	          0.00000000	          0.13527746	          0.00000000	          0.00022083	          0.00000000	          0.00000000	          3.74674587	          0.00000000	
          3.14400000	          0.00848866	          0.04213881	          0.00532141	         -0.00012052	          0.00000000	         -0.00003631	          0.29639864	        956.83458744	        -58.19166295	          0.31550055	          0.00000000	          0.13528678	          0.00000000	          0.00020978	          0.00000000	          0.00000000	          3.69276280	          0.00000000	
          3.14500000	          0.00756569	          0.03872317	          0.00503529	         -0.00011571	          0.00000000	         -0.00003513	          0.63118695	        955.91563081	        -58.24107653	          0.31567348	          0.00000000	          0.13529575	          0.00000000	          0.00019888	          0.00000000	          0.00000000	          3.63901464	          0.00000000	
          3.14600000	          0.00669260	          0.03545162	          0.00475446	         -0.00011088	          0.00000000	         -0.00003392	          0.96664417	        954.99749386	        -58.28954585	          0.31584613	          0.00000000	          0.13530437	          0.00000000	          0.00018816	          0.00000000	          0.00000000	          3.58550818	          0.00000000	
          3.14700000	          0.00586845	          0.03232427	          0.00447955	         -0.00010603	          0.00000000	         -0.00003268	          1.30268457	        954.08106507	        -58.33677108	          0.31601854	          0.00000000	          0.13531262	          0.00000000	          0.00017763	          0.00000000	          0.00000000	          3.53225000	          0.00000000	
